<mxfile host="app.diagrams.net" modified="2022-02-21T17:16:56.178Z" agent="5.0 (Windows NT 10.0; Win64; x64) AppleWebKit/537.36 (KHTML, like Gecko) Chrome/98.0.4758.102 Safari/537.36" etag="tOs5fOx6qtXw8jSaGy4u" version="15.2.9" type="github">
  <diagram id="cC1WnrAtKfMwRshsUJuo" name="Page-1">
    <mxGraphModel dx="920" dy="551" grid="1" gridSize="10" guides="1" tooltips="1" connect="1" arrows="1" fold="1" page="1" pageScale="1" pageWidth="827" pageHeight="1169" math="0" shadow="0">
      <root>
        <mxCell id="0" />
        <mxCell id="1" parent="0" />
        <mxCell id="5NySSE22oRGq-a_B7u7q-8" style="edgeStyle=orthogonalEdgeStyle;rounded=0;orthogonalLoop=1;jettySize=auto;html=1;entryX=0;entryY=0.5;entryDx=0;entryDy=0;" edge="1" parent="1" source="5NySSE22oRGq-a_B7u7q-2" target="5NySSE22oRGq-a_B7u7q-7">
          <mxGeometry relative="1" as="geometry" />
        </mxCell>
        <mxCell id="5NySSE22oRGq-a_B7u7q-2" value="" style="rounded=0;whiteSpace=wrap;html=1;" vertex="1" parent="1">
          <mxGeometry x="60" y="165" width="230" height="150" as="geometry" />
        </mxCell>
        <mxCell id="5NySSE22oRGq-a_B7u7q-3" value="FROM ubuntu:15.04&lt;br&gt;&lt;br&gt;MAINTAINER Vincent&lt;br&gt;&lt;br&gt;WORKDIR /app/&lt;br&gt;&lt;br&gt;RUN echo &quot;echo &#39;hello&#39;&quot; &amp;gt; sayhello.sh&lt;br&gt;&lt;br&gt;ENTRYPOINT [&quot;sh&quot;, &quot;sayhello.sh&quot;]" style="text;whiteSpace=wrap;html=1;" vertex="1" parent="1">
          <mxGeometry x="70" y="170" width="230" height="80" as="geometry" />
        </mxCell>
        <mxCell id="5NySSE22oRGq-a_B7u7q-4" value="Dockerfile" style="text;html=1;strokeColor=none;fillColor=none;align=center;verticalAlign=middle;whiteSpace=wrap;rounded=0;" vertex="1" parent="1">
          <mxGeometry x="70" y="145" width="40" height="20" as="geometry" />
        </mxCell>
        <mxCell id="5NySSE22oRGq-a_B7u7q-6" value="docker build" style="text;html=1;strokeColor=none;fillColor=none;align=center;verticalAlign=middle;whiteSpace=wrap;rounded=0;" vertex="1" parent="1">
          <mxGeometry x="300" y="245" width="70" height="20" as="geometry" />
        </mxCell>
        <mxCell id="5NySSE22oRGq-a_B7u7q-7" value="Step 1/5 : FROM ubuntu:15.04&#xa; ---&gt; d1b55fd07600&#xa;Step 2/5 : MAINTAINER Vincent&#xa; ---&gt; Using cache&#xa; ---&gt; 6467b520d962&#xa;Step 3/5 : WORKDIR /app/&#xa; ---&gt; Using cache&#xa; ---&gt; d100d55f6662&#xa;Step 4/5 : RUN echo &quot;echo &#39;hello&#39;&quot; &gt; sayhello.sh&#xa; ---&gt; Using cache&#xa; ---&gt; e99a226dfa4e&#xa;Step 5/5 : ENTRYPOINT [&quot;sh&quot;, &quot;sayhello.sh&quot;]&#xa; ---&gt; Using cache&#xa; ---&gt; 876b42a11077&#xa;Successfully built 876b42a11077&#xa;Successfully tagged tt:v2" style="text;whiteSpace=wrap;html=1;" vertex="1" parent="1">
          <mxGeometry x="380" y="120" width="280" height="240" as="geometry" />
        </mxCell>
        <mxCell id="5NySSE22oRGq-a_B7u7q-10" value="&lt;font color=&quot;#ff0000&quot;&gt;(base image)&lt;/font&gt;" style="text;html=1;strokeColor=none;fillColor=none;align=center;verticalAlign=middle;whiteSpace=wrap;rounded=0;" vertex="1" parent="1">
          <mxGeometry x="480" y="136" width="80" height="20" as="geometry" />
        </mxCell>
        <mxCell id="5NySSE22oRGq-a_B7u7q-14" value="&lt;font color=&quot;#ff0000&quot;&gt;(layer 1)&lt;/font&gt;" style="text;html=1;strokeColor=none;fillColor=none;align=center;verticalAlign=middle;whiteSpace=wrap;rounded=0;" vertex="1" parent="1">
          <mxGeometry x="470" y="180" width="80" height="20" as="geometry" />
        </mxCell>
        <mxCell id="5NySSE22oRGq-a_B7u7q-15" value="&lt;font color=&quot;#ff0000&quot;&gt;(layer 2)&lt;/font&gt;" style="text;html=1;strokeColor=none;fillColor=none;align=center;verticalAlign=middle;whiteSpace=wrap;rounded=0;" vertex="1" parent="1">
          <mxGeometry x="470" y="225" width="80" height="20" as="geometry" />
        </mxCell>
        <mxCell id="5NySSE22oRGq-a_B7u7q-16" value="&lt;font color=&quot;#ff0000&quot;&gt;(layer 3)&lt;/font&gt;" style="text;html=1;strokeColor=none;fillColor=none;align=center;verticalAlign=middle;whiteSpace=wrap;rounded=0;" vertex="1" parent="1">
          <mxGeometry x="470" y="266" width="80" height="20" as="geometry" />
        </mxCell>
        <mxCell id="5NySSE22oRGq-a_B7u7q-17" value="&lt;font color=&quot;#ff0000&quot;&gt;(layer 4)&lt;/font&gt;" style="text;html=1;strokeColor=none;fillColor=none;align=center;verticalAlign=middle;whiteSpace=wrap;rounded=0;" vertex="1" parent="1">
          <mxGeometry x="470" y="309" width="80" height="20" as="geometry" />
        </mxCell>
      </root>
    </mxGraphModel>
  </diagram>
</mxfile>
